<?xml version="1.0" encoding="utf-8"?>
<!-- Generator: Adobe Illustrator 24.1.1, SVG Export Plug-In . SVG Version: 6.00 Build 0)  -->
<svg version="1.1" id="Capa_1" xmlns="http://www.w3.org/2000/svg" xmlns:xlink="http://www.w3.org/1999/xlink" x="0px" y="0px"
	 viewBox="0 0 512 512" style="enable-background:new 0 0 512 512;" xml:space="preserve">
<style type="text/css">
	.st0{fill:#FFFFFF;}
</style>
<g>
	<path class="st0" d="M185.3,512C109.1,511.6,46,356,46,276.8c0-129.4,97.1-157.7,134.5-157.7c16.9,0,34.9,6.6,50.7,12.5
		c11.1,4.1,22.6,8.3,29,8.3c3.8,0,12.8-3.6,20.8-6.7c17-6.8,38.1-15.1,62.7-15.1c0,0,0.1,0,0.1,0c18.4,0,74,4,107.5,54.3l7.8,11.8
		l-11.3,8.5c-16.1,12.2-45.5,34.3-45.5,78.3c0,52,33.3,72,49.3,81.7c7.1,4.2,14.4,8.6,14.4,18.2c0,6.3-49.9,140.6-122.4,140.6
		c-17.7,0-30.3-5.3-41.3-10c-11.2-4.8-20.8-8.9-36.8-8.9c-8.1,0-18.3,3.8-29.1,7.9c-14.8,5.5-31.5,11.8-50.5,11.8H185.3z"/>
	<path class="st0" d="M351.3,0c1.9,68.1-46.8,115.3-95.4,112.3C247.9,58,304.5,0,351.3,0z"/>
</g>
</svg>
