<svg width="10" height="17" viewBox="0 0 10 17" fill="none" xmlns="http://www.w3.org/2000/svg">
<path d="M9.47012 6.425C9.42218 6.33295 9.32342 6.27431 9.21484 6.27295L5.73947 6.23177L7.32367 0.845862C7.36136 0.718226 7.29639 0.5835 7.16961 0.526637C7.04313 0.469501 6.89138 0.506728 6.81009 0.614864L0.553267 8.93297C0.490748 9.01616 0.482663 9.12538 0.532187 9.21593C0.581856 9.30661 0.68076 9.36361 0.788761 9.36361H3.47882L1.28271 16.1475C1.2417 16.2743 1.30321 16.4107 1.42839 16.4705C1.46997 16.4905 1.51473 16.5 1.55877 16.5C1.64743 16.5 1.7342 16.4614 1.79037 16.3904L9.44283 6.70863C9.50766 6.62668 9.5182 6.5169 9.47012 6.425Z" fill="#009e49"/>
</svg>
